<svg viewBox="-16 -32 880 192" width="880" height="192" xmlns="http://www.w3.org/2000/svg"><desc>Generated with https://github.com/isitreallyalive/snkgen</desc><style>:root{--cb:#1b1f230a;--cs:#ffffff;--ce:#161b22;--c0:#161b22;--c1:#01311f;--c2:#034525;--c3:#0f6d31;--c4:#00c647}.c{shape-rendering:geometricPrecision;fill:var(--ce);stroke-width:1px;stroke:var(--cb);animation:none 25500ms linear infinite;width:12px;height:12px}@keyframes c0{13.32%{fill:var(--c1)}13.34%,100%{fill:var(--ce)}}.c.c0{fill:var(--c1);animation-name:c0}@keyframes c1{8.62%{fill:var(--c1)}8.64%,100%{fill:var(--ce)}}.c.c1{fill:var(--c1);animation-name:c1}@keyframes c2{9.79%{fill:var(--c1)}9.81%,100%{fill:var(--ce)}}.c.c2{fill:var(--c1);animation-name:c2}@keyframes c3{10.19%{fill:var(--c1)}10.21%,100%{fill:var(--ce)}}.c.c3{fill:var(--c1);animation-name:c3}@keyframes c4{21.17%{fill:var(--c1)}21.19%,100%{fill:var(--ce)}}.c.c4{fill:var(--c1);animation-name:c4}@keyframes c5{19.6%{fill:var(--c1)}19.62%,100%{fill:var(--ce)}}.c.c5{fill:var(--c1);animation-name:c5}@keyframes c6{19.21%{fill:var(--c1)}19.23%,100%{fill:var(--ce)}}.c.c6{fill:var(--c1);animation-name:c6}@keyframes c7{18.81%{fill:var(--c1)}18.83%,100%{fill:var(--ce)}}.c.c7{fill:var(--c1);animation-name:c7}@keyframes c8{18.42%{fill:var(--c1)}18.44%,100%{fill:var(--ce)}}.c.c8{fill:var(--c1);animation-name:c8}@keyframes c9{20.77%{fill:var(--c1)}20.79%,100%{fill:var(--ce)}}.c.c9{fill:var(--c1);animation-name:c9}@keyframes ca{20.38%{fill:var(--c1)}20.4%,100%{fill:var(--ce)}}.c.ca{fill:var(--c1);animation-name:ca}@keyframes cb{22.74%{fill:var(--c1)}22.76%,100%{fill:var(--ce)}}.c.cb{fill:var(--c1);animation-name:cb}@keyframes cc{23.13%{fill:var(--c1)}23.15%,100%{fill:var(--ce)}}.c.cc{fill:var(--c1);animation-name:cc}@keyframes cd{56.85%{fill:var(--c2)}56.87%,100%{fill:var(--ce)}}.c.cd{fill:var(--c2);animation-name:cd}@keyframes ce{25.87%{fill:var(--c1)}25.89%,100%{fill:var(--ce)}}.c.ce{fill:var(--c1);animation-name:ce}@keyframes cf{24.3%{fill:var(--c1)}24.32%,100%{fill:var(--ce)}}.c.cf{fill:var(--c1);animation-name:cf}@keyframes cg{25.09%{fill:var(--c1)}25.11%,100%{fill:var(--ce)}}.c.cg{fill:var(--c1);animation-name:cg}@keyframes ch{71.75%{fill:var(--c3)}71.77%,100%{fill:var(--ce)}}.c.ch{fill:var(--c3);animation-name:ch}@keyframes ci{32.93%{fill:var(--c1)}32.95%,100%{fill:var(--ce)}}.c.ci{fill:var(--c1);animation-name:ci}@keyframes cj{28.62%{fill:var(--c1)}28.64%,100%{fill:var(--ce)}}.c.cj{fill:var(--c1);animation-name:cj}@keyframes ck{29.01%{fill:var(--c1)}29.03%,100%{fill:var(--ce)}}.c.ck{fill:var(--c1);animation-name:ck}@keyframes cl{31.75%{fill:var(--c1)}31.77%,100%{fill:var(--ce)}}.c.cl{fill:var(--c1);animation-name:cl}@keyframes cm{31.36%{fill:var(--c1)}31.38%,100%{fill:var(--ce)}}.c.cm{fill:var(--c1);animation-name:cm}@keyframes cn{39.6%{fill:var(--c1)}39.62%,100%{fill:var(--ce)}}.c.cn{fill:var(--c1);animation-name:cn}@keyframes co{36.85%{fill:var(--c1)}36.87%,100%{fill:var(--ce)}}.c.co{fill:var(--c1);animation-name:co}@keyframes cp{45.87%{fill:var(--c2)}45.89%,100%{fill:var(--ce)}}.c.cp{fill:var(--c2);animation-name:cp}@keyframes cq{45.48%{fill:var(--c1)}45.5%,100%{fill:var(--ce)}}.c.cq{fill:var(--c1);animation-name:cq}@keyframes cr{66.26%{fill:var(--c3)}66.28%,100%{fill:var(--ce)}}.c.cr{fill:var(--c3);animation-name:cr}@keyframes cs{51.75%{fill:var(--c2)}51.77%,100%{fill:var(--ce)}}.c.cs{fill:var(--c2);animation-name:cs}@keyframes ct{65.09%{fill:var(--c3)}65.11%,100%{fill:var(--ce)}}.c.ct{fill:var(--c3);animation-name:ct}@keyframes cu{64.7%{fill:var(--c3)}64.72%,100%{fill:var(--ce)}}.c.cu{fill:var(--c3);animation-name:cu}@keyframes cv{64.3%{fill:var(--c1)}64.32%,100%{fill:var(--ce)}}.c.cv{fill:var(--c1);animation-name:cv}@keyframes cw{67.05%{fill:var(--c3)}67.07%,100%{fill:var(--ce)}}.c.cw{fill:var(--c3);animation-name:cw}@keyframes cx{78.42%{fill:var(--c4)}78.44%,100%{fill:var(--ce)}}.c.cx{fill:var(--c4);animation-name:cx}@keyframes cy{49.01%{fill:var(--c1)}49.03%,100%{fill:var(--ce)}}.c.cy{fill:var(--c1);animation-name:cy}@keyframes cz{49.4%{fill:var(--c2)}49.42%,100%{fill:var(--ce)}}.c.cz{fill:var(--c2);animation-name:cz}@keyframes c10{49.79%{fill:var(--c2)}49.81%,100%{fill:var(--ce)}}.c.c10{fill:var(--c2);animation-name:c10}@keyframes c11{41.56%{fill:var(--c1)}41.58%,100%{fill:var(--ce)}}.c.c11{fill:var(--c1);animation-name:c11}.u{transform-origin:0 0;transform:scale(0,1);animation:none linear 25500ms infinite}@keyframes u0{8.62%{transform:scale(0.000,1)}8.64%,9.79%{transform:scale(0.040,1)}9.81%,10.19%{transform:scale(0.080,1)}10.21%,13.32%{transform:scale(0.120,1)}13.34%,18.42%{transform:scale(0.160,1)}18.44%,18.81%{transform:scale(0.200,1)}18.83%,19.21%{transform:scale(0.240,1)}19.23%,19.6%{transform:scale(0.280,1)}19.62%,20.38%{transform:scale(0.320,1)}20.4%,20.77%{transform:scale(0.360,1)}20.79%,21.17%{transform:scale(0.400,1)}21.19%,22.74%{transform:scale(0.440,1)}22.76%,23.13%{transform:scale(0.480,1)}23.15%,24.3%{transform:scale(0.520,1)}24.32%,25.09%{transform:scale(0.560,1)}25.11%,25.87%{transform:scale(0.600,1)}25.89%,28.62%{transform:scale(0.640,1)}28.64%,29.01%{transform:scale(0.680,1)}29.03%,31.36%{transform:scale(0.720,1)}31.38%,31.75%{transform:scale(0.760,1)}31.77%,32.93%{transform:scale(0.800,1)}32.95%,36.85%{transform:scale(0.840,1)}36.87%,39.6%{transform:scale(0.880,1)}39.62%,41.56%{transform:scale(0.920,1)}41.58%,45.48%{transform:scale(0.960,1)}45.5%,100%{transform:scale(1.000,1)}}.u.u0{fill:var(--c1);animation-name:u0;transform-origin:0.0px 0}@keyframes u1{45.87%{transform:scale(0.000,1)}45.89%,100%{transform:scale(1.000,1)}}.u.u1{fill:var(--c2);animation-name:u1;transform-origin:557.9px 0}@keyframes u2{49.01%{transform:scale(0.000,1)}49.03%,100%{transform:scale(1.000,1)}}.u.u2{fill:var(--c1);animation-name:u2;transform-origin:580.2px 0}@keyframes u3{49.4%{transform:scale(0.000,1)}49.42%,49.79%{transform:scale(0.250,1)}49.81%,51.75%{transform:scale(0.500,1)}51.77%,56.85%{transform:scale(0.750,1)}56.87%,100%{transform:scale(1.000,1)}}.u.u3{fill:var(--c2);animation-name:u3;transform-origin:602.5px 0}@keyframes u4{64.3%{transform:scale(0.000,1)}64.32%,100%{transform:scale(1.000,1)}}.u.u4{fill:var(--c1);animation-name:u4;transform-origin:691.8px 0}@keyframes u5{64.7%{transform:scale(0.000,1)}64.72%,65.09%{transform:scale(0.200,1)}65.11%,66.26%{transform:scale(0.400,1)}66.28%,67.05%{transform:scale(0.600,1)}67.07%,71.75%{transform:scale(0.800,1)}71.77%,100%{transform:scale(1.000,1)}}.u.u5{fill:var(--c3);animation-name:u5;transform-origin:714.1px 0}@keyframes u6{78.42%{transform:scale(0.000,1)}78.44%,100%{transform:scale(1.000,1)}}.u.u6{fill:var(--c4);animation-name:u6;transform-origin:825.7px 0}.s{shape-rendering:geometricPrecision;fill:var(--cs);animation:none linear 25500ms infinite}@keyframes s0{0%,99.61%{transform:translate(0px,-16px)}0.39%{transform:translate(0px,0px)}9.8%{transform:translate(384px,0px)}10.2%{transform:translate(384px,16px)}11.76%{transform:translate(320px,16px)}13.33%{transform:translate(320px,80px)}18.43%{transform:translate(528px,80px)}19.61%{transform:translate(528px,32px)}20%{transform:translate(544px,32px)}20.78%{transform:translate(544px,0px)}21.18%{transform:translate(528px,0px)}21.57%{transform:translate(528px,16px)}22.75%{transform:translate(576px,16px)}23.14%{transform:translate(576px,32px)}24.31%{transform:translate(624px,32px)}25.49%,27.06%{transform:translate(624px,80px)}25.88%,57.25%{transform:translate(608px,80px)}26.27%{transform:translate(608px,96px)}26.67%{transform:translate(624px,96px)}28.63%{transform:translate(688px,80px)}29.02%{transform:translate(688px,96px)}29.41%{transform:translate(704px,96px)}31.76%{transform:translate(704px,0px)}32.94%{transform:translate(656px,0px)}33.33%{transform:translate(656px,16px)}36.86%{transform:translate(800px,16px)}37.25%,46.67%{transform:translate(800px,0px)}37.65%{transform:translate(784px,0px)}40%,43.92%{transform:translate(784px,96px)}41.18%,50.59%,63.14%,76.47%{transform:translate(832px,96px)}41.57%{transform:translate(832px,80px)}41.96%{transform:translate(848px,80px)}42.35%{transform:translate(848px,96px)}45.1%{transform:translate(784px,48px)}45.49%{transform:translate(800px,48px)}47.84%{transform:translate(848px,0px)}48.63%{transform:translate(848px,32px)}49.02%{transform:translate(832px,32px)}51.37%,62.35%{transform:translate(800px,96px)}51.76%,61.96%{transform:translate(800px,80px)}52.16%{transform:translate(784px,80px)}52.55%{transform:translate(784px,64px)}56.86%{transform:translate(608px,64px)}63.92%{transform:translate(832px,64px)}64.31%,66.67%{transform:translate(816px,64px)}65.1%{transform:translate(816px,32px)}65.49%{transform:translate(800px,32px)}66.27%{transform:translate(800px,64px)}67.06%{transform:translate(816px,80px)}71.37%{transform:translate(640px,80px)}71.76%{transform:translate(640px,96px)}78.43%{transform:translate(832px,16px)}96.08%{transform:translate(112px,16px)}96.86%{transform:translate(112px,-16px)}}.s.s0{transform:translate(0px,-16px);animation-name:s0}@keyframes s1{0%,99.61%{transform:translate(16px,-16px)}0.39%{transform:translate(0px,-16px)}0.78%{transform:translate(0px,0px)}10.2%{transform:translate(384px,0px)}10.59%{transform:translate(384px,16px)}12.16%{transform:translate(320px,16px)}13.73%{transform:translate(320px,80px)}18.82%{transform:translate(528px,80px)}20%{transform:translate(528px,32px)}20.39%{transform:translate(544px,32px)}21.18%{transform:translate(544px,0px)}21.57%{transform:translate(528px,0px)}21.96%{transform:translate(528px,16px)}23.14%{transform:translate(576px,16px)}23.53%{transform:translate(576px,32px)}24.71%{transform:translate(624px,32px)}25.88%,27.45%{transform:translate(624px,80px)}26.27%,57.65%{transform:translate(608px,80px)}26.67%{transform:translate(608px,96px)}27.06%{transform:translate(624px,96px)}29.02%{transform:translate(688px,80px)}29.41%{transform:translate(688px,96px)}29.8%{transform:translate(704px,96px)}32.16%{transform:translate(704px,0px)}33.33%{transform:translate(656px,0px)}33.73%{transform:translate(656px,16px)}37.25%{transform:translate(800px,16px)}37.65%,47.06%{transform:translate(800px,0px)}38.04%{transform:translate(784px,0px)}40.39%,44.31%{transform:translate(784px,96px)}41.57%,50.98%,63.53%,76.86%{transform:translate(832px,96px)}41.96%{transform:translate(832px,80px)}42.35%{transform:translate(848px,80px)}42.75%{transform:translate(848px,96px)}45.49%{transform:translate(784px,48px)}45.88%{transform:translate(800px,48px)}48.24%{transform:translate(848px,0px)}49.02%{transform:translate(848px,32px)}49.41%{transform:translate(832px,32px)}51.76%,62.75%{transform:translate(800px,96px)}52.16%,62.35%{transform:translate(800px,80px)}52.55%{transform:translate(784px,80px)}52.94%{transform:translate(784px,64px)}57.25%{transform:translate(608px,64px)}64.31%{transform:translate(832px,64px)}64.71%,67.06%{transform:translate(816px,64px)}65.49%{transform:translate(816px,32px)}65.88%{transform:translate(800px,32px)}66.67%{transform:translate(800px,64px)}67.45%{transform:translate(816px,80px)}71.76%{transform:translate(640px,80px)}72.16%{transform:translate(640px,96px)}78.82%{transform:translate(832px,16px)}96.47%{transform:translate(112px,16px)}97.25%{transform:translate(112px,-16px)}}.s.s1{transform:translate(16px,-16px);animation-name:s1}@keyframes s2{0%,99.61%{transform:translate(32px,-16px)}0.78%{transform:translate(0px,-16px)}1.18%{transform:translate(0px,0px)}10.59%{transform:translate(384px,0px)}10.98%{transform:translate(384px,16px)}12.55%{transform:translate(320px,16px)}14.12%{transform:translate(320px,80px)}19.22%{transform:translate(528px,80px)}20.39%{transform:translate(528px,32px)}20.78%{transform:translate(544px,32px)}21.57%{transform:translate(544px,0px)}21.96%{transform:translate(528px,0px)}22.35%{transform:translate(528px,16px)}23.53%{transform:translate(576px,16px)}23.92%{transform:translate(576px,32px)}25.1%{transform:translate(624px,32px)}26.27%,27.84%{transform:translate(624px,80px)}26.67%,58.04%{transform:translate(608px,80px)}27.06%{transform:translate(608px,96px)}27.45%{transform:translate(624px,96px)}29.41%{transform:translate(688px,80px)}29.8%{transform:translate(688px,96px)}30.2%{transform:translate(704px,96px)}32.55%{transform:translate(704px,0px)}33.73%{transform:translate(656px,0px)}34.12%{transform:translate(656px,16px)}37.65%{transform:translate(800px,16px)}38.04%,47.45%{transform:translate(800px,0px)}38.43%{transform:translate(784px,0px)}40.78%,44.71%{transform:translate(784px,96px)}41.96%,51.37%,63.92%,77.25%{transform:translate(832px,96px)}42.35%{transform:translate(832px,80px)}42.75%{transform:translate(848px,80px)}43.14%{transform:translate(848px,96px)}45.88%{transform:translate(784px,48px)}46.27%{transform:translate(800px,48px)}48.63%{transform:translate(848px,0px)}49.41%{transform:translate(848px,32px)}49.8%{transform:translate(832px,32px)}52.16%,63.14%{transform:translate(800px,96px)}52.55%,62.75%{transform:translate(800px,80px)}52.94%{transform:translate(784px,80px)}53.33%{transform:translate(784px,64px)}57.65%{transform:translate(608px,64px)}64.71%{transform:translate(832px,64px)}65.1%,67.45%{transform:translate(816px,64px)}65.88%{transform:translate(816px,32px)}66.27%{transform:translate(800px,32px)}67.06%{transform:translate(800px,64px)}67.84%{transform:translate(816px,80px)}72.16%{transform:translate(640px,80px)}72.55%{transform:translate(640px,96px)}79.22%{transform:translate(832px,16px)}96.86%{transform:translate(112px,16px)}97.65%{transform:translate(112px,-16px)}}.s.s2{transform:translate(32px,-16px);animation-name:s2}@keyframes s3{0%,99.61%{transform:translate(48px,-16px)}1.18%{transform:translate(0px,-16px)}1.57%{transform:translate(0px,0px)}10.98%{transform:translate(384px,0px)}11.37%{transform:translate(384px,16px)}12.94%{transform:translate(320px,16px)}14.51%{transform:translate(320px,80px)}19.61%{transform:translate(528px,80px)}20.78%{transform:translate(528px,32px)}21.18%{transform:translate(544px,32px)}21.96%{transform:translate(544px,0px)}22.35%{transform:translate(528px,0px)}22.75%{transform:translate(528px,16px)}23.92%{transform:translate(576px,16px)}24.31%{transform:translate(576px,32px)}25.49%{transform:translate(624px,32px)}26.67%,28.24%{transform:translate(624px,80px)}27.06%,58.43%{transform:translate(608px,80px)}27.45%{transform:translate(608px,96px)}27.84%{transform:translate(624px,96px)}29.8%{transform:translate(688px,80px)}30.2%{transform:translate(688px,96px)}30.59%{transform:translate(704px,96px)}32.94%{transform:translate(704px,0px)}34.12%{transform:translate(656px,0px)}34.51%{transform:translate(656px,16px)}38.04%{transform:translate(800px,16px)}38.43%,47.84%{transform:translate(800px,0px)}38.82%{transform:translate(784px,0px)}41.18%,45.1%{transform:translate(784px,96px)}42.35%,51.76%,64.31%,77.65%{transform:translate(832px,96px)}42.75%{transform:translate(832px,80px)}43.14%{transform:translate(848px,80px)}43.53%{transform:translate(848px,96px)}46.27%{transform:translate(784px,48px)}46.67%{transform:translate(800px,48px)}49.02%{transform:translate(848px,0px)}49.8%{transform:translate(848px,32px)}50.2%{transform:translate(832px,32px)}52.55%,63.53%{transform:translate(800px,96px)}52.94%,63.14%{transform:translate(800px,80px)}53.33%{transform:translate(784px,80px)}53.73%{transform:translate(784px,64px)}58.04%{transform:translate(608px,64px)}65.1%{transform:translate(832px,64px)}65.49%,67.84%{transform:translate(816px,64px)}66.27%{transform:translate(816px,32px)}66.67%{transform:translate(800px,32px)}67.45%{transform:translate(800px,64px)}68.24%{transform:translate(816px,80px)}72.55%{transform:translate(640px,80px)}72.94%{transform:translate(640px,96px)}79.61%{transform:translate(832px,16px)}97.25%{transform:translate(112px,16px)}98.04%{transform:translate(112px,-16px)}}.s.s3{transform:translate(48px,-16px);animation-name:s3}</style><rect class="c" x="2" y="2" rx="2" ry="2"/><rect class="c" x="2" y="18" rx="2" ry="2"/><rect class="c" x="2" y="34" rx="2" ry="2"/><rect class="c" x="2" y="50" rx="2" ry="2"/><rect class="c" x="2" y="66" rx="2" ry="2"/><rect class="c" x="2" y="82" rx="2" ry="2"/><rect class="c" x="2" y="98" rx="2" ry="2"/><rect class="c" x="18" y="2" rx="2" ry="2"/><rect class="c" x="18" y="18" rx="2" ry="2"/><rect class="c" x="18" y="34" rx="2" ry="2"/><rect class="c" x="18" y="50" rx="2" ry="2"/><rect class="c" x="18" y="66" rx="2" ry="2"/><rect class="c" x="18" y="82" rx="2" ry="2"/><rect class="c" x="18" y="98" rx="2" ry="2"/><rect class="c" x="34" y="2" rx="2" ry="2"/><rect class="c" x="34" y="18" rx="2" ry="2"/><rect class="c" x="34" y="34" rx="2" ry="2"/><rect class="c" x="34" y="50" rx="2" ry="2"/><rect class="c" x="34" y="66" rx="2" ry="2"/><rect class="c" x="34" y="82" rx="2" ry="2"/><rect class="c" x="34" y="98" rx="2" ry="2"/><rect class="c" x="50" y="2" rx="2" ry="2"/><rect class="c" x="50" y="18" rx="2" ry="2"/><rect class="c" x="50" y="34" rx="2" ry="2"/><rect class="c" x="50" y="50" rx="2" ry="2"/><rect class="c" x="50" y="66" rx="2" ry="2"/><rect class="c" x="50" y="82" rx="2" ry="2"/><rect class="c" x="50" y="98" rx="2" ry="2"/><rect class="c" x="66" y="2" rx="2" ry="2"/><rect class="c" x="66" y="18" rx="2" ry="2"/><rect class="c" x="66" y="34" rx="2" ry="2"/><rect class="c" x="66" y="50" rx="2" ry="2"/><rect class="c" x="66" y="66" rx="2" ry="2"/><rect class="c" x="66" y="82" rx="2" ry="2"/><rect class="c" x="66" y="98" rx="2" ry="2"/><rect class="c" x="82" y="2" rx="2" ry="2"/><rect class="c" x="82" y="18" rx="2" ry="2"/><rect class="c" x="82" y="34" rx="2" ry="2"/><rect class="c" x="82" y="50" rx="2" ry="2"/><rect class="c" x="82" y="66" rx="2" ry="2"/><rect class="c" x="82" y="82" rx="2" ry="2"/><rect class="c" x="82" y="98" rx="2" ry="2"/><rect class="c" x="98" y="2" rx="2" ry="2"/><rect class="c" x="98" y="18" rx="2" ry="2"/><rect class="c" x="98" y="34" rx="2" ry="2"/><rect class="c" x="98" y="50" rx="2" ry="2"/><rect class="c" x="98" y="66" rx="2" ry="2"/><rect class="c" x="98" y="82" rx="2" ry="2"/><rect class="c" x="98" y="98" rx="2" ry="2"/><rect class="c" x="114" y="2" rx="2" ry="2"/><rect class="c" x="114" y="18" rx="2" ry="2"/><rect class="c" x="114" y="34" rx="2" ry="2"/><rect class="c" x="114" y="50" rx="2" ry="2"/><rect class="c" x="114" y="66" rx="2" ry="2"/><rect class="c" x="114" y="82" rx="2" ry="2"/><rect class="c" x="114" y="98" rx="2" ry="2"/><rect class="c" x="130" y="2" rx="2" ry="2"/><rect class="c" x="130" y="18" rx="2" ry="2"/><rect class="c" x="130" y="34" rx="2" ry="2"/><rect class="c" x="130" y="50" rx="2" ry="2"/><rect class="c" x="130" y="66" rx="2" ry="2"/><rect class="c" x="130" y="82" rx="2" ry="2"/><rect class="c" x="130" y="98" rx="2" ry="2"/><rect class="c" x="146" y="2" rx="2" ry="2"/><rect class="c" x="146" y="18" rx="2" ry="2"/><rect class="c" x="146" y="34" rx="2" ry="2"/><rect class="c" x="146" y="50" rx="2" ry="2"/><rect class="c" x="146" y="66" rx="2" ry="2"/><rect class="c" x="146" y="82" rx="2" ry="2"/><rect class="c" x="146" y="98" rx="2" ry="2"/><rect class="c" x="162" y="2" rx="2" ry="2"/><rect class="c" x="162" y="18" rx="2" ry="2"/><rect class="c" x="162" y="34" rx="2" ry="2"/><rect class="c" x="162" y="50" rx="2" ry="2"/><rect class="c" x="162" y="66" rx="2" ry="2"/><rect class="c" x="162" y="82" rx="2" ry="2"/><rect class="c" x="162" y="98" rx="2" ry="2"/><rect class="c" x="178" y="2" rx="2" ry="2"/><rect class="c" x="178" y="18" rx="2" ry="2"/><rect class="c" x="178" y="34" rx="2" ry="2"/><rect class="c" x="178" y="50" rx="2" ry="2"/><rect class="c" x="178" y="66" rx="2" ry="2"/><rect class="c" x="178" y="82" rx="2" ry="2"/><rect class="c" x="178" y="98" rx="2" ry="2"/><rect class="c" x="194" y="2" rx="2" ry="2"/><rect class="c" x="194" y="18" rx="2" ry="2"/><rect class="c" x="194" y="34" rx="2" ry="2"/><rect class="c" x="194" y="50" rx="2" ry="2"/><rect class="c" x="194" y="66" rx="2" ry="2"/><rect class="c" x="194" y="82" rx="2" ry="2"/><rect class="c" x="194" y="98" rx="2" ry="2"/><rect class="c" x="210" y="2" rx="2" ry="2"/><rect class="c" x="210" y="18" rx="2" ry="2"/><rect class="c" x="210" y="34" rx="2" ry="2"/><rect class="c" x="210" y="50" rx="2" ry="2"/><rect class="c" x="210" y="66" rx="2" ry="2"/><rect class="c" x="210" y="82" rx="2" ry="2"/><rect class="c" x="210" y="98" rx="2" ry="2"/><rect class="c" x="226" y="2" rx="2" ry="2"/><rect class="c" x="226" y="18" rx="2" ry="2"/><rect class="c" x="226" y="34" rx="2" ry="2"/><rect class="c" x="226" y="50" rx="2" ry="2"/><rect class="c" x="226" y="66" rx="2" ry="2"/><rect class="c" x="226" y="82" rx="2" ry="2"/><rect class="c" x="226" y="98" rx="2" ry="2"/><rect class="c" x="242" y="2" rx="2" ry="2"/><rect class="c" x="242" y="18" rx="2" ry="2"/><rect class="c" x="242" y="34" rx="2" ry="2"/><rect class="c" x="242" y="50" rx="2" ry="2"/><rect class="c" x="242" y="66" rx="2" ry="2"/><rect class="c" x="242" y="82" rx="2" ry="2"/><rect class="c" x="242" y="98" rx="2" ry="2"/><rect class="c" x="258" y="2" rx="2" ry="2"/><rect class="c" x="258" y="18" rx="2" ry="2"/><rect class="c" x="258" y="34" rx="2" ry="2"/><rect class="c" x="258" y="50" rx="2" ry="2"/><rect class="c" x="258" y="66" rx="2" ry="2"/><rect class="c" x="258" y="82" rx="2" ry="2"/><rect class="c" x="258" y="98" rx="2" ry="2"/><rect class="c" x="274" y="2" rx="2" ry="2"/><rect class="c" x="274" y="18" rx="2" ry="2"/><rect class="c" x="274" y="34" rx="2" ry="2"/><rect class="c" x="274" y="50" rx="2" ry="2"/><rect class="c" x="274" y="66" rx="2" ry="2"/><rect class="c" x="274" y="82" rx="2" ry="2"/><rect class="c" x="274" y="98" rx="2" ry="2"/><rect class="c" x="290" y="2" rx="2" ry="2"/><rect class="c" x="290" y="18" rx="2" ry="2"/><rect class="c" x="290" y="34" rx="2" ry="2"/><rect class="c" x="290" y="50" rx="2" ry="2"/><rect class="c" x="290" y="66" rx="2" ry="2"/><rect class="c" x="290" y="82" rx="2" ry="2"/><rect class="c" x="290" y="98" rx="2" ry="2"/><rect class="c" x="306" y="2" rx="2" ry="2"/><rect class="c" x="306" y="18" rx="2" ry="2"/><rect class="c" x="306" y="34" rx="2" ry="2"/><rect class="c" x="306" y="50" rx="2" ry="2"/><rect class="c" x="306" y="66" rx="2" ry="2"/><rect class="c" x="306" y="82" rx="2" ry="2"/><rect class="c" x="306" y="98" rx="2" ry="2"/><rect class="c" x="322" y="2" rx="2" ry="2"/><rect class="c" x="322" y="18" rx="2" ry="2"/><rect class="c" x="322" y="34" rx="2" ry="2"/><rect class="c" x="322" y="50" rx="2" ry="2"/><rect class="c" x="322" y="66" rx="2" ry="2"/><rect class="c c0" x="322" y="82" rx="2" ry="2"/><rect class="c" x="322" y="98" rx="2" ry="2"/><rect class="c c1" x="338" y="2" rx="2" ry="2"/><rect class="c" x="338" y="18" rx="2" ry="2"/><rect class="c" x="338" y="34" rx="2" ry="2"/><rect class="c" x="338" y="50" rx="2" ry="2"/><rect class="c" x="338" y="66" rx="2" ry="2"/><rect class="c" x="338" y="82" rx="2" ry="2"/><rect class="c" x="338" y="98" rx="2" ry="2"/><rect class="c" x="354" y="2" rx="2" ry="2"/><rect class="c" x="354" y="18" rx="2" ry="2"/><rect class="c" x="354" y="34" rx="2" ry="2"/><rect class="c" x="354" y="50" rx="2" ry="2"/><rect class="c" x="354" y="66" rx="2" ry="2"/><rect class="c" x="354" y="82" rx="2" ry="2"/><rect class="c" x="354" y="98" rx="2" ry="2"/><rect class="c" x="370" y="2" rx="2" ry="2"/><rect class="c" x="370" y="18" rx="2" ry="2"/><rect class="c" x="370" y="34" rx="2" ry="2"/><rect class="c" x="370" y="50" rx="2" ry="2"/><rect class="c" x="370" y="66" rx="2" ry="2"/><rect class="c" x="370" y="82" rx="2" ry="2"/><rect class="c" x="370" y="98" rx="2" ry="2"/><rect class="c c2" x="386" y="2" rx="2" ry="2"/><rect class="c c3" x="386" y="18" rx="2" ry="2"/><rect class="c" x="386" y="34" rx="2" ry="2"/><rect class="c" x="386" y="50" rx="2" ry="2"/><rect class="c" x="386" y="66" rx="2" ry="2"/><rect class="c" x="386" y="82" rx="2" ry="2"/><rect class="c" x="386" y="98" rx="2" ry="2"/><rect class="c" x="402" y="2" rx="2" ry="2"/><rect class="c" x="402" y="18" rx="2" ry="2"/><rect class="c" x="402" y="34" rx="2" ry="2"/><rect class="c" x="402" y="50" rx="2" ry="2"/><rect class="c" x="402" y="66" rx="2" ry="2"/><rect class="c" x="402" y="82" rx="2" ry="2"/><rect class="c" x="402" y="98" rx="2" ry="2"/><rect class="c" x="418" y="2" rx="2" ry="2"/><rect class="c" x="418" y="18" rx="2" ry="2"/><rect class="c" x="418" y="34" rx="2" ry="2"/><rect class="c" x="418" y="50" rx="2" ry="2"/><rect class="c" x="418" y="66" rx="2" ry="2"/><rect class="c" x="418" y="82" rx="2" ry="2"/><rect class="c" x="418" y="98" rx="2" ry="2"/><rect class="c" x="434" y="2" rx="2" ry="2"/><rect class="c" x="434" y="18" rx="2" ry="2"/><rect class="c" x="434" y="34" rx="2" ry="2"/><rect class="c" x="434" y="50" rx="2" ry="2"/><rect class="c" x="434" y="66" rx="2" ry="2"/><rect class="c" x="434" y="82" rx="2" ry="2"/><rect class="c" x="434" y="98" rx="2" ry="2"/><rect class="c" x="450" y="2" rx="2" ry="2"/><rect class="c" x="450" y="18" rx="2" ry="2"/><rect class="c" x="450" y="34" rx="2" ry="2"/><rect class="c" x="450" y="50" rx="2" ry="2"/><rect class="c" x="450" y="66" rx="2" ry="2"/><rect class="c" x="450" y="82" rx="2" ry="2"/><rect class="c" x="450" y="98" rx="2" ry="2"/><rect class="c" x="466" y="2" rx="2" ry="2"/><rect class="c" x="466" y="18" rx="2" ry="2"/><rect class="c" x="466" y="34" rx="2" ry="2"/><rect class="c" x="466" y="50" rx="2" ry="2"/><rect class="c" x="466" y="66" rx="2" ry="2"/><rect class="c" x="466" y="82" rx="2" ry="2"/><rect class="c" x="466" y="98" rx="2" ry="2"/><rect class="c" x="482" y="2" rx="2" ry="2"/><rect class="c" x="482" y="18" rx="2" ry="2"/><rect class="c" x="482" y="34" rx="2" ry="2"/><rect class="c" x="482" y="50" rx="2" ry="2"/><rect class="c" x="482" y="66" rx="2" ry="2"/><rect class="c" x="482" y="82" rx="2" ry="2"/><rect class="c" x="482" y="98" rx="2" ry="2"/><rect class="c" x="498" y="2" rx="2" ry="2"/><rect class="c" x="498" y="18" rx="2" ry="2"/><rect class="c" x="498" y="34" rx="2" ry="2"/><rect class="c" x="498" y="50" rx="2" ry="2"/><rect class="c" x="498" y="66" rx="2" ry="2"/><rect class="c" x="498" y="82" rx="2" ry="2"/><rect class="c" x="498" y="98" rx="2" ry="2"/><rect class="c" x="514" y="2" rx="2" ry="2"/><rect class="c" x="514" y="18" rx="2" ry="2"/><rect class="c" x="514" y="34" rx="2" ry="2"/><rect class="c" x="514" y="50" rx="2" ry="2"/><rect class="c" x="514" y="66" rx="2" ry="2"/><rect class="c" x="514" y="82" rx="2" ry="2"/><rect class="c" x="514" y="98" rx="2" ry="2"/><rect class="c c4" x="530" y="2" rx="2" ry="2"/><rect class="c" x="530" y="18" rx="2" ry="2"/><rect class="c c5" x="530" y="34" rx="2" ry="2"/><rect class="c c6" x="530" y="50" rx="2" ry="2"/><rect class="c c7" x="530" y="66" rx="2" ry="2"/><rect class="c c8" x="530" y="82" rx="2" ry="2"/><rect class="c" x="530" y="98" rx="2" ry="2"/><rect class="c c9" x="546" y="2" rx="2" ry="2"/><rect class="c ca" x="546" y="18" rx="2" ry="2"/><rect class="c" x="546" y="34" rx="2" ry="2"/><rect class="c" x="546" y="50" rx="2" ry="2"/><rect class="c" x="546" y="66" rx="2" ry="2"/><rect class="c" x="546" y="82" rx="2" ry="2"/><rect class="c" x="546" y="98" rx="2" ry="2"/><rect class="c" x="562" y="2" rx="2" ry="2"/><rect class="c" x="562" y="18" rx="2" ry="2"/><rect class="c" x="562" y="34" rx="2" ry="2"/><rect class="c" x="562" y="50" rx="2" ry="2"/><rect class="c" x="562" y="66" rx="2" ry="2"/><rect class="c" x="562" y="82" rx="2" ry="2"/><rect class="c" x="562" y="98" rx="2" ry="2"/><rect class="c" x="578" y="2" rx="2" ry="2"/><rect class="c cb" x="578" y="18" rx="2" ry="2"/><rect class="c cc" x="578" y="34" rx="2" ry="2"/><rect class="c" x="578" y="50" rx="2" ry="2"/><rect class="c" x="578" y="66" rx="2" ry="2"/><rect class="c" x="578" y="82" rx="2" ry="2"/><rect class="c" x="578" y="98" rx="2" ry="2"/><rect class="c" x="594" y="2" rx="2" ry="2"/><rect class="c" x="594" y="18" rx="2" ry="2"/><rect class="c" x="594" y="34" rx="2" ry="2"/><rect class="c" x="594" y="50" rx="2" ry="2"/><rect class="c" x="594" y="66" rx="2" ry="2"/><rect class="c" x="594" y="82" rx="2" ry="2"/><rect class="c" x="594" y="98" rx="2" ry="2"/><rect class="c" x="610" y="2" rx="2" ry="2"/><rect class="c" x="610" y="18" rx="2" ry="2"/><rect class="c" x="610" y="34" rx="2" ry="2"/><rect class="c" x="610" y="50" rx="2" ry="2"/><rect class="c cd" x="610" y="66" rx="2" ry="2"/><rect class="c ce" x="610" y="82" rx="2" ry="2"/><rect class="c" x="610" y="98" rx="2" ry="2"/><rect class="c" x="626" y="2" rx="2" ry="2"/><rect class="c" x="626" y="18" rx="2" ry="2"/><rect class="c cf" x="626" y="34" rx="2" ry="2"/><rect class="c" x="626" y="50" rx="2" ry="2"/><rect class="c cg" x="626" y="66" rx="2" ry="2"/><rect class="c" x="626" y="82" rx="2" ry="2"/><rect class="c" x="626" y="98" rx="2" ry="2"/><rect class="c" x="642" y="2" rx="2" ry="2"/><rect class="c" x="642" y="18" rx="2" ry="2"/><rect class="c" x="642" y="34" rx="2" ry="2"/><rect class="c" x="642" y="50" rx="2" ry="2"/><rect class="c" x="642" y="66" rx="2" ry="2"/><rect class="c" x="642" y="82" rx="2" ry="2"/><rect class="c ch" x="642" y="98" rx="2" ry="2"/><rect class="c ci" x="658" y="2" rx="2" ry="2"/><rect class="c" x="658" y="18" rx="2" ry="2"/><rect class="c" x="658" y="34" rx="2" ry="2"/><rect class="c" x="658" y="50" rx="2" ry="2"/><rect class="c" x="658" y="66" rx="2" ry="2"/><rect class="c" x="658" y="82" rx="2" ry="2"/><rect class="c" x="658" y="98" rx="2" ry="2"/><rect class="c" x="674" y="2" rx="2" ry="2"/><rect class="c" x="674" y="18" rx="2" ry="2"/><rect class="c" x="674" y="34" rx="2" ry="2"/><rect class="c" x="674" y="50" rx="2" ry="2"/><rect class="c" x="674" y="66" rx="2" ry="2"/><rect class="c" x="674" y="82" rx="2" ry="2"/><rect class="c" x="674" y="98" rx="2" ry="2"/><rect class="c" x="690" y="2" rx="2" ry="2"/><rect class="c" x="690" y="18" rx="2" ry="2"/><rect class="c" x="690" y="34" rx="2" ry="2"/><rect class="c" x="690" y="50" rx="2" ry="2"/><rect class="c" x="690" y="66" rx="2" ry="2"/><rect class="c cj" x="690" y="82" rx="2" ry="2"/><rect class="c ck" x="690" y="98" rx="2" ry="2"/><rect class="c cl" x="706" y="2" rx="2" ry="2"/><rect class="c cm" x="706" y="18" rx="2" ry="2"/><rect class="c" x="706" y="34" rx="2" ry="2"/><rect class="c" x="706" y="50" rx="2" ry="2"/><rect class="c" x="706" y="66" rx="2" ry="2"/><rect class="c" x="706" y="82" rx="2" ry="2"/><rect class="c" x="706" y="98" rx="2" ry="2"/><rect class="c" x="722" y="2" rx="2" ry="2"/><rect class="c" x="722" y="18" rx="2" ry="2"/><rect class="c" x="722" y="34" rx="2" ry="2"/><rect class="c" x="722" y="50" rx="2" ry="2"/><rect class="c" x="722" y="66" rx="2" ry="2"/><rect class="c" x="722" y="82" rx="2" ry="2"/><rect class="c" x="722" y="98" rx="2" ry="2"/><rect class="c" x="738" y="2" rx="2" ry="2"/><rect class="c" x="738" y="18" rx="2" ry="2"/><rect class="c" x="738" y="34" rx="2" ry="2"/><rect class="c" x="738" y="50" rx="2" ry="2"/><rect class="c" x="738" y="66" rx="2" ry="2"/><rect class="c" x="738" y="82" rx="2" ry="2"/><rect class="c" x="738" y="98" rx="2" ry="2"/><rect class="c" x="754" y="2" rx="2" ry="2"/><rect class="c" x="754" y="18" rx="2" ry="2"/><rect class="c" x="754" y="34" rx="2" ry="2"/><rect class="c" x="754" y="50" rx="2" ry="2"/><rect class="c" x="754" y="66" rx="2" ry="2"/><rect class="c" x="754" y="82" rx="2" ry="2"/><rect class="c" x="754" y="98" rx="2" ry="2"/><rect class="c" x="770" y="2" rx="2" ry="2"/><rect class="c" x="770" y="18" rx="2" ry="2"/><rect class="c" x="770" y="34" rx="2" ry="2"/><rect class="c" x="770" y="50" rx="2" ry="2"/><rect class="c" x="770" y="66" rx="2" ry="2"/><rect class="c" x="770" y="82" rx="2" ry="2"/><rect class="c" x="770" y="98" rx="2" ry="2"/><rect class="c" x="786" y="2" rx="2" ry="2"/><rect class="c" x="786" y="18" rx="2" ry="2"/><rect class="c" x="786" y="34" rx="2" ry="2"/><rect class="c" x="786" y="50" rx="2" ry="2"/><rect class="c" x="786" y="66" rx="2" ry="2"/><rect class="c cn" x="786" y="82" rx="2" ry="2"/><rect class="c" x="786" y="98" rx="2" ry="2"/><rect class="c" x="802" y="2" rx="2" ry="2"/><rect class="c co" x="802" y="18" rx="2" ry="2"/><rect class="c cp" x="802" y="34" rx="2" ry="2"/><rect class="c cq" x="802" y="50" rx="2" ry="2"/><rect class="c cr" x="802" y="66" rx="2" ry="2"/><rect class="c cs" x="802" y="82" rx="2" ry="2"/><rect class="c" x="802" y="98" rx="2" ry="2"/><rect class="c" x="818" y="2" rx="2" ry="2"/><rect class="c" x="818" y="18" rx="2" ry="2"/><rect class="c ct" x="818" y="34" rx="2" ry="2"/><rect class="c cu" x="818" y="50" rx="2" ry="2"/><rect class="c cv" x="818" y="66" rx="2" ry="2"/><rect class="c cw" x="818" y="82" rx="2" ry="2"/><rect class="c" x="818" y="98" rx="2" ry="2"/><rect class="c" x="834" y="2" rx="2" ry="2"/><rect class="c cx" x="834" y="18" rx="2" ry="2"/><rect class="c cy" x="834" y="34" rx="2" ry="2"/><rect class="c cz" x="834" y="50" rx="2" ry="2"/><rect class="c c10" x="834" y="66" rx="2" ry="2"/><rect class="c c11" x="834" y="82" rx="2" ry="2"/><rect class="c" x="834" y="98" rx="2" ry="2"/><rect class="u u0" height="12" width="558.5" x="0.0" y="144"/><rect class="u u1" height="12" width="22.9" x="557.9" y="144"/><rect class="u u2" height="12" width="22.9" x="580.2" y="144"/><rect class="u u3" height="12" width="89.9" x="602.5" y="144"/><rect class="u u4" height="12" width="22.9" x="691.8" y="144"/><rect class="u u5" height="12" width="112.2" x="714.1" y="144"/><rect class="u u6" height="12" width="22.9" x="825.7" y="144"/><rect class="s s0" x="0.8" y="0.8" width="14.4" height="14.4" rx="4.5" ry="4.5"/><rect class="s s1" x="1.8" y="1.8" width="12.3" height="12.3" rx="4.1" ry="4.1"/><rect class="s s2" x="2.6" y="2.6" width="10.8" height="10.8" rx="3.6" ry="3.6"/><rect class="s s3" x="3.0" y="3.0" width="9.9" height="9.9" rx="3.3" ry="3.3"/></svg>